<?xml version="1.0" standalone="no"?>
<!DOCTYPE svg PUBLIC "-//W3C//DTD SVG 20010904//EN"
 "http://www.w3.org/TR/2001/REC-SVG-20010904/DTD/svg10.dtd">
<svg version="1.0" xmlns="http://www.w3.org/2000/svg"
 width="311.000000pt" height="162.000000pt" viewBox="0 0 311.000000 162.000000"
 preserveAspectRatio="xMidYMid meet">

<g transform="translate(0.000000,162.000000) scale(0.100000,-0.100000)"
fill="#000000" stroke="none">
<path d="M0 810 l0 -810 1555 0 1555 0 0 810 0 810 -1555 0 -1555 0 0 -810z
m1928 419 c184 -20 370 -65 563 -136 89 -33 98 -39 73 -44 l-29 -6 30 -7 c98
-23 184 -46 210 -57 l30 -12 -33 -6 -33 -6 30 -40 c17 -22 31 -47 31 -55 0 -9
-7 -5 -17 10 -28 41 -55 58 -100 64 -24 3 -56 15 -71 25 -33 24 -220 47 -500
60 -100 4 -185 10 -187 13 -3 3 57 8 134 12 132 6 238 19 250 32 9 9 -21 23
-119 54 -153 49 -299 73 -440 73 -146 1 -217 -12 -320 -60 -80 -37 -190 -103
-190 -115 0 -18 48 -6 70 17 28 30 83 36 78 8 -2 -11 -14 -19 -31 -21 -15 -2
-27 -8 -27 -13 0 -5 -33 -9 -72 -9 -85 0 -398 -25 -510 -40 -43 -6 -99 -17
-125 -25 -27 -8 -65 -15 -85 -15 -28 0 -50 -10 -84 -35 -25 -19 -56 -35 -69
-35 -13 0 -32 -3 -42 -7 -17 -6 -17 -6 0 15 11 11 24 19 30 16 18 -6 117 54
117 71 0 8 -7 15 -17 15 -33 0 -4 11 68 25 41 8 195 20 343 26 l268 10 67 43
c217 138 294 165 479 166 73 0 176 -5 230 -11z m292 -317 c25 -4 -236 -7 -580
-7 -344 0 -602 3 -575 6 70 8 1100 9 1155 1z m-1670 -116 c0 -8 13 -19 30 -24
46 -16 162 -25 190 -14 l25 10 -25 10 c-75 30 -77 33 -28 28 52 -4 98 -28 98
-51 0 -46 -241 -45 -292 2 -19 17 -24 53 -8 53 6 0 10 -6 10 -14z m158 -91
c105 0 111 -1 80 -14 -90 -37 -207 -21 -259 35 l-24 26 45 -23 c40 -21 58 -24
158 -24z m-35 -55 c44 0 58 -3 47 -10 -26 -17 -132 -12 -170 8 -53 29 -47 43
10 21 30 -11 76 -19 113 -19z m17 -52 c0 -16 -68 -19 -101 -5 l-34 15 67 -2
c37 0 68 -4 68 -8z m5 -38 c-3 -5 -17 -10 -30 -10 -13 0 -27 5 -30 10 -4 6 8
10 30 10 22 0 34 -4 30 -10z m-3 -42 c-8 -8 -17 -8 -34 0 -22 10 -21 11 12 11
26 1 31 -2 22 -11z m-225 -135 c14 -34 17 -36 27 -19 27 45 43 59 60 53 13 -5
16 -17 14 -49 -4 -51 -25 -63 -30 -16 l-3 33 -18 -32 c-24 -45 -52 -43 -68 5
l-13 37 -9 -37 c-12 -49 -27 -49 -27 0 0 69 42 84 67 25z m225 0 c3 -35 5 -38
33 -37 17 1 33 2 37 3 4 1 8 15 10 33 2 17 9 34 17 36 11 4 13 -4 7 -38 -4
-24 -9 -47 -12 -52 -7 -12 -112 -10 -119 2 -9 14 4 90 15 90 5 0 10 -17 12
-37z m228 10 c-3 -47 -1 -50 37 -49 21 1 38 -4 41 -12 3 -10 -9 -12 -49 -10
-53 3 -54 4 -57 36 -2 19 -1 40 2 48 9 25 28 15 26 -13z m308 15 c-3 -7 -17
-14 -31 -16 -23 -3 -27 -8 -27 -38 0 -25 -4 -34 -16 -34 -13 0 -15 7 -11 35 5
32 4 35 -19 35 -15 0 -24 6 -24 15 0 12 14 15 66 15 48 0 65 -3 62 -12z m112
-22 c0 -40 -8 -66 -21 -66 -10 0 -12 83 -2 93 15 15 23 5 23 -27z m158 -2 l19
-37 22 37 c22 34 55 48 63 25 2 -5 2 -28 0 -50 -3 -26 -9 -39 -19 -39 -12 0
-14 8 -9 35 4 19 5 35 2 35 -2 0 -14 -16 -26 -35 -28 -46 -52 -45 -70 3 l-14
37 -6 -34 c-7 -45 -30 -54 -30 -11 0 38 16 70 35 70 8 0 23 -16 33 -36z m302
-4 c24 -47 25 -60 5 -60 -8 0 -15 5 -15 10 0 14 -46 13 -70 -2 -28 -18 -34 -4
-14 29 47 75 65 80 94 23z m248 -10 c0 -50 -15 -68 -25 -30 -4 15 -14 20 -40
20 -26 0 -36 -5 -40 -20 -10 -37 -23 -20 -23 30 l0 50 64 0 65 0 -1 -50z m212
35 c0 -11 -12 -15 -45 -15 -38 0 -45 -3 -45 -19 0 -16 10 -21 46 -27 60 -9 43
-26 -22 -22 -54 3 -64 19 -45 71 10 24 15 27 61 27 38 0 50 -4 50 -15z m204
-28 c20 -52 20 -57 1 -57 -8 0 -15 5 -15 10 0 14 -46 13 -70 -2 -33 -21 -33
-1 0 46 40 59 62 60 84 3z m244 31 c-3 -7 -27 -16 -54 -19 l-49 -6 53 -1 c52
-2 53 -3 50 -29 -3 -27 -5 -28 -70 -31 -43 -2 -68 1 -68 8 0 10 26 14 72 11
14 -1 29 3 33 8 4 7 -12 11 -44 11 -47 0 -51 2 -51 23 0 34 6 37 73 37 42 0
58 -3 55 -12z"/>
<path d="M1750 375 c-10 -13 -9 -15 8 -15 15 0 20 5 16 15 -4 8 -7 15 -9 15
-1 0 -8 -7 -15 -15z"/>
<path d="M1950 388 c0 -4 16 -8 35 -8 19 0 35 2 35 4 0 2 -16 6 -35 8 -19 2
-35 0 -35 -4z"/>
<path d="M2410 375 c-10 -13 -9 -15 8 -15 15 0 20 5 16 15 -4 8 -7 15 -9 15
-1 0 -8 -7 -15 -15z"/>
</g>
</svg>
